<?xml version="1.0" standalone="no"?>
<!DOCTYPE svg PUBLIC "-//W3C//DTD SVG 20010904//EN"
 "http://www.w3.org/TR/2001/REC-SVG-20010904/DTD/svg10.dtd">
<svg version="1.0" xmlns="http://www.w3.org/2000/svg"
 width="16.000000pt" height="16.000000pt" viewBox="0 0 16.000000 16.000000"
 preserveAspectRatio="xMidYMid meet">
<metadata>
Created by potrace 1.11, written by Peter Selinger 2001-2013
</metadata>
<g transform="translate(0.000000,16.000000) scale(0.002000,-0.002000)"
fill="#000000" stroke="none">
<path d="M3950 7808 c-35 -84 -66 -156 -69 -160 -3 -4 -28 -10 -56 -13 -42 -5
-70 -10 -105 -20 -3 -1 -21 -5 -40 -9 -210 -46 -443 -181 -624 -362 -84 -83
-109 -116 -95 -125 8 -5 22 -9 31 -9 9 0 19 -4 22 -9 3 -4 18 -11 33 -14 16
-3 39 -10 53 -15 14 -5 28 -10 32 -11 4 -1 33 -13 63 -26 31 -14 64 -25 75
-25 10 0 21 -4 24 -9 3 -4 26 -14 51 -21 45 -12 45 -12 85 24 64 58 270 180
270 160 0 -4 6 -2 13 3 12 10 67 27 78 25 4 -1 22 3 40 9 36 10 206 13 249 4
13 -2 42 -7 63 -10 127 -19 345 -108 446 -182 64 -46 154 -129 199 -183 78
-93 82 -99 82 -109 0 -5 6 -16 13 -23 12 -12 107 -192 107 -203 1 -25 202
-429 227 -457 9 -10 13 -18 10 -18 -9 0 145 -228 183 -270 64 -71 64 -71 35
-141 -14 -34 -25 -68 -25 -76 0 -7 -4 -13 -8 -13 -5 0 -9 -7 -9 -15 0 -8 -7
-31 -16 -52 -33 -78 -88 -225 -85 -228 3 -4 141 52 215 86 24 10 46 19 49 19
3 0 20 6 37 14 18 8 60 26 95 40 l63 25 141 -94 c78 -52 147 -95 154 -95 7 0
14 -4 16 -8 3 -9 166 -102 178 -102 4 0 12 12 18 28 56 146 78 232 88 333 l5
64 -108 64 c-131 78 -306 208 -388 289 -67 66 -145 155 -159 180 -5 10 -14 22
-20 27 -17 15 -66 93 -66 105 0 5 -3 10 -7 10 -5 0 -33 48 -63 108 -30 59 -58
109 -62 110 -5 2 -8 12 -8 23 0 10 -4 19 -10 19 -5 0 -10 7 -10 16 0 9 -7 28
-15 42 -8 15 -40 83 -71 152 -56 126 -110 230 -148 285 -59 84 -137 178 -204
243 -70 70 -220 188 -252 200 -8 3 -17 9 -20 12 -9 12 -212 107 -275 129 -60
20 -167 51 -195 55 -8 2 -36 6 -61 10 -52 9 -37 -14 -146 231 -25 55 -48 104
-52 108 -4 4 -36 -61 -71 -145z"/>
<path d="M2408 6975 c-2 -2 -37 -5 -78 -9 -41 -3 -86 -8 -100 -11 -14 -3 -36
-7 -50 -9 -14 -2 -45 -10 -70 -17 -25 -7 -49 -13 -55 -15 -23 -5 -156 -53
-191 -70 -22 -9 -89 -46 -150 -81 -62 -35 -118 -63 -126 -63 -7 0 -24 7 -36
16 -12 8 -22 13 -22 10 0 -4 -83 26 -145 54 -20 8 -51 19 -60 20 -2 1 -30 12
-60 25 -68 30 -68 30 -59 3 10 -35 117 -294 135 -331 7 -13 -4 -35 -51 -96
-79 -104 -173 -297 -195 -401 -2 -8 -4 -15 -5 -15 -4 0 -30 -132 -38 -195 -8
-68 -8 -327 0 -336 4 -3 35 9 70 28 35 18 99 49 143 68 44 19 83 39 87 45 4 5
8 7 8 2 0 -4 25 6 57 21 l56 29 3 53 c5 96 65 317 93 340 3 3 7 12 9 20 8 36
100 146 175 208 151 127 298 203 484 252 129 33 355 31 485 -5 29 -8 64 -17
78 -21 14 -4 106 -37 205 -74 248 -92 482 -167 492 -156 3 3 18 -1 33 -9 15
-8 29 -12 32 -10 2 3 18 1 36 -4 17 -5 59 -12 94 -16 35 -4 76 -9 93 -11 16
-2 53 -4 82 -5 l52 -2 32 -71 c18 -39 31 -74 31 -78 -1 -5 2 -8 8 -8 5 0 10 5
10 11 0 5 14 41 32 80 30 66 33 69 67 70 73 2 174 16 296 41 55 11 109 22 120
24 16 3 124 30 190 48 6 2 31 9 58 16 26 7 47 17 47 22 0 19 -93 208 -102 208
-5 0 -6 5 -3 10 3 6 1 10 -4 10 -6 0 -11 7 -11 15 0 8 -4 15 -8 15 -4 0 -15
12 -24 28 -9 15 -29 41 -45 58 -29 30 -29 30 -79 16 -27 -7 -58 -15 -69 -16
-11 -2 -27 -6 -35 -9 -37 -15 -191 -42 -310 -54 -121 -12 -350 -5 -413 13 -10
3 -31 7 -48 9 -47 6 -271 69 -329 92 -8 4 -17 7 -20 8 -38 10 -135 45 -195 71
-117 49 -307 105 -402 118 -24 3 -60 8 -80 11 -41 6 -221 13 -225 10z"/>
<path d="M5520 6970 c-19 -3 -35 -9 -34 -15 0 -5 23 -58 52 -117 29 -59 52
-110 52 -112 0 -15 87 -181 95 -182 6 -1 37 -4 70 -8 57 -5 70 -7 139 -22 102
-22 279 -117 347 -186 179 -181 285 -393 325 -648 7 -42 7 -233 0 -275 -15
-99 -83 -321 -132 -430 -23 -52 -102 -296 -128 -395 -24 -93 -29 -113 -42
-195 -3 -22 -8 -42 -9 -46 -3 -5 -15 -139 -19 -212 -1 -26 -9 -32 -71 -58 -39
-17 -73 -34 -78 -38 -4 -4 12 -15 35 -25 82 -34 107 -47 112 -54 3 -5 7 -40
10 -78 6 -67 23 -198 33 -239 2 -11 6 -31 9 -45 3 -14 17 -72 30 -130 14 -58
27 -114 30 -126 2 -12 10 -39 18 -62 8 -22 12 -43 9 -46 -13 -12 25 -16 53 -5
16 7 31 13 34 14 18 5 106 52 111 58 3 5 8 7 10 6 6 -5 108 65 148 101 l34 30
-14 58 c-7 31 -14 64 -16 72 -1 8 -9 44 -18 80 -46 198 -61 404 -42 570 15
129 18 154 25 164 3 6 7 20 8 31 1 12 8 41 14 66 7 24 13 49 14 54 2 11 44
141 53 165 3 8 7 22 9 30 2 8 7 23 13 35 29 60 132 352 150 425 30 121 46 259
45 375 -1 140 -8 190 -49 375 -20 93 -154 387 -198 435 -10 11 -20 29 -23 40
-4 17 85 270 132 372 8 17 14 34 14 37 0 5 -29 -4 -70 -21 -8 -3 -17 -7 -20
-8 -3 -1 -14 -5 -25 -10 -11 -5 -56 -23 -100 -42 -44 -18 -85 -33 -92 -33 -7
0 -13 -4 -13 -8 0 -5 -6 -9 -12 -9 -7 0 -20 -4 -29 -7 -11 -5 -29 3 -52 23
-19 17 -38 31 -41 31 -4 0 -16 8 -26 18 -38 36 -220 127 -310 156 -107 34
-154 44 -290 62 -63 8 -238 11 -280 4z"/>
<path d="M2429 6244 c-30 -49 -56 -93 -59 -99 -11 -22 -74 -110 -82 -113 -4
-2 -8 -8 -8 -14 0 -32 -230 -268 -330 -338 -19 -14 -37 -27 -40 -30 -12 -12
-70 -50 -76 -50 -4 0 -15 -6 -23 -14 -30 -26 -299 -166 -320 -166 -6 0 -11 -4
-11 -10 0 -5 -3 -9 -7 -8 -16 6 -367 -161 -383 -181 -8 -10 -43 -31 -63 -37
-9 -4 -17 -10 -17 -15 0 -5 -8 -9 -17 -9 -9 0 -14 -3 -10 -6 3 -4 -11 -18 -33
-33 -75 -50 -204 -184 -283 -291 -64 -87 -177 -294 -177 -324 0 -6 -6 -22 -13
-36 -14 -27 -63 -194 -71 -243 -11 -67 6 -56 -271 -179 -60 -27 -114 -53 -118
-57 -7 -7 47 -34 56 -28 1 0 16 -7 32 -16 25 -14 78 -37 95 -42 3 0 26 -10 51
-22 25 -11 62 -26 82 -32 45 -15 46 -16 53 -83 3 -29 8 -56 10 -59 2 -3 6 -20
9 -39 3 -18 17 -64 31 -104 14 -39 26 -76 28 -81 8 -46 128 -245 201 -335 43
-54 211 -220 222 -220 6 0 19 24 28 53 9 28 44 125 77 214 l60 161 -22 24
c-63 66 -174 252 -185 309 -2 11 -6 23 -9 27 -6 9 -14 46 -25 109 -11 63 -1
278 14 303 3 5 8 28 11 52 10 70 80 238 142 337 71 115 193 241 304 314 81 53
209 118 338 172 164 68 488 249 572 320 33 28 45 30 85 14 44 -18 62 -25 153
-59 47 -18 94 -36 105 -41 11 -5 47 -18 80 -30 33 -12 66 -26 73 -32 17 -14 7
33 -18 83 -10 19 -19 40 -20 45 -2 6 -7 19 -11 30 -5 11 -34 81 -63 154 -57
140 -57 145 -18 186 48 52 202 280 287 427 24 41 65 118 65 121 0 3 -28 15
-62 27 -35 12 -74 27 -88 33 -29 12 -25 11 -70 20 -19 4 -46 10 -60 13 -14 3
-53 8 -86 11 l-61 5 -54 -88z"/>
<path d="M7135 5018 c-9 -29 -20 -62 -25 -73 -4 -11 -13 -36 -20 -55 -7 -19
-18 -48 -25 -65 -7 -16 -16 -41 -20 -54 -4 -13 -14 -39 -21 -58 -8 -18 -15
-36 -15 -40 -1 -5 -5 -15 -9 -24 -6 -11 0 -25 21 -47 31 -33 139 -190 139
-202 0 -4 10 -29 22 -56 12 -27 23 -53 24 -59 2 -5 6 -21 10 -35 18 -67 30
-157 23 -171 -4 -8 -4 -21 1 -29 5 -8 7 -17 5 -20 -2 -4 -7 -33 -10 -66 -3
-32 -10 -81 -15 -109 -6 -27 -12 -59 -14 -70 -17 -84 -90 -243 -160 -349 -68
-103 -228 -256 -298 -288 -16 -7 -28 -16 -28 -20 0 -5 -5 -8 -11 -8 -6 0 -23
-8 -37 -18 -15 -10 -90 -47 -167 -81 -156 -70 -319 -150 -410 -201 -66 -36
-217 -131 -225 -140 -3 -3 -27 -23 -54 -43 -35 -26 -55 -36 -70 -31 -29 8
-173 63 -215 81 -18 8 -39 16 -45 18 -6 1 -20 6 -31 10 -96 38 -189 75 -191
75 -2 0 1 -12 6 -27 7 -26 17 -50 55 -138 7 -16 22 -53 34 -82 11 -28 26 -64
33 -80 6 -15 12 -30 13 -33 4 -13 26 -67 35 -85 24 -52 22 -63 -25 -124 -99
-130 -280 -434 -271 -456 2 -7 15 -15 28 -18 13 -3 55 -16 93 -30 112 -40 128
-43 231 -52 l70 -6 30 52 c16 28 35 63 43 77 8 15 17 29 20 32 3 3 12 17 20
32 8 15 21 36 30 46 9 9 32 40 50 67 19 28 38 52 41 55 3 3 14 16 23 30 17 25
121 133 178 186 42 38 175 136 209 154 14 7 27 16 30 19 10 12 336 181 349
181 5 0 62 26 127 57 66 31 121 57 124 58 23 5 160 89 211 129 15 12 39 30 55
41 46 32 219 207 239 243 11 17 22 32 26 32 8 0 97 146 134 219 28 56 95 223
100 251 2 8 9 35 16 60 7 25 13 50 14 55 7 58 19 106 29 113 6 5 45 24 86 42
41 18 108 48 148 66 41 19 78 34 83 34 5 0 9 4 9 8 0 9 -98 52 -118 52 -6 0
-12 5 -12 10 0 6 -6 10 -14 10 -7 0 -31 8 -52 17 -22 9 -41 17 -44 18 -3 1
-23 9 -45 18 -36 16 -41 21 -42 55 -1 20 -4 48 -7 62 -3 14 -8 39 -11 55 -12
62 -16 75 -26 102 -6 16 -12 35 -14 43 -2 8 -9 29 -16 45 -7 17 -13 32 -14 35
-10 35 -118 226 -136 240 -3 3 -8 10 -10 17 -10 28 -150 181 -236 257 l-41 37
-17 -53z"/>
<path d="M1600 4761 c-30 -15 -71 -33 -90 -41 -19 -8 -39 -18 -45 -22 -5 -5
-34 -24 -64 -44 -83 -56 -122 -95 -116 -115 3 -10 8 -26 10 -36 2 -10 15 -65
29 -123 13 -58 27 -124 30 -148 3 -24 8 -47 10 -51 13 -20 21 -309 11 -386 -3
-22 -7 -60 -10 -85 -3 -25 -8 -52 -10 -60 -2 -8 -6 -26 -9 -40 -14 -73 -48
-194 -77 -277 -11 -32 -22 -65 -24 -73 -2 -8 -22 -62 -45 -120 -52 -132 -119
-333 -126 -378 -3 -19 -7 -44 -10 -56 -19 -100 -25 -347 -10 -463 8 -66 56
-254 81 -318 23 -59 98 -210 138 -278 l47 -78 -31 -72 c-16 -40 -30 -74 -31
-77 -1 -11 -28 -80 -72 -188 -14 -34 -24 -62 -22 -62 6 0 147 57 225 91 30 13
57 24 60 25 3 0 20 6 36 13 17 6 36 14 44 17 8 2 30 -8 50 -24 102 -82 277
-179 356 -198 17 -4 35 -11 41 -15 6 -5 28 -11 50 -15 21 -3 43 -8 48 -11 4
-3 20 -7 35 -9 14 -1 36 -5 48 -8 72 -16 277 -25 365 -16 l48 5 -16 30 c-28
53 -160 342 -166 365 -5 17 -28 27 -66 29 -25 1 -68 7 -96 12 -28 6 -62 12
-75 15 -13 3 -34 10 -45 16 -12 6 -23 11 -26 11 -8 -1 -34 8 -52 18 -10 5 -25
9 -33 9 -8 0 -15 3 -15 8 0 4 -15 14 -32 21 -51 22 -128 84 -180 142 -63 72
-108 130 -108 140 0 4 -6 14 -12 21 -49 53 -125 234 -151 358 -19 91 -18 87
-19 230 -1 181 13 248 108 497 30 81 57 153 58 158 1 6 4 15 7 20 6 10 30 79
35 100 2 6 17 57 33 115 17 58 33 114 35 125 23 107 28 133 31 155 2 14 6 45
9 70 8 56 14 124 15 168 1 31 5 35 81 69 80 36 80 36 53 48 -15 7 -44 20 -65
29 -20 9 -41 16 -46 16 -16 0 -24 17 -27 63 -7 82 -22 199 -30 237 -4 14 -8
34 -9 45 -9 54 -19 97 -37 170 -12 44 -22 88 -24 97 -8 40 -38 144 -44 150 -3
3 -31 -6 -61 -21z"/>
<path d="M1779 2853 c-65 -166 -97 -304 -90 -390 1 -10 25 -27 108 -74 71 -40
163 -103 163 -111 0 -4 5 -8 12 -8 35 0 255 -204 345 -320 65 -83 145 -207
178 -273 14 -29 30 -59 35 -67 9 -13 31 -60 115 -245 53 -116 118 -251 124
-255 3 -3 11 -16 17 -30 21 -47 145 -205 222 -283 72 -74 186 -166 242 -198
14 -8 32 -19 40 -25 93 -70 354 -168 518 -196 39 -6 72 -16 72 -21 0 -4 18
-46 40 -93 22 -47 40 -87 40 -90 0 -3 13 -31 28 -62 16 -31 29 -61 30 -67 0
-5 4 -11 9 -12 8 -3 53 103 52 121 0 5 3 12 8 15 4 3 24 44 42 91 19 47 35 86
35 87 1 1 24 5 51 8 43 6 90 15 201 40 12 3 61 21 110 41 205 82 381 211 552
406 l24 26 -79 25 c-43 14 -91 31 -108 38 -16 6 -34 13 -40 15 -5 1 -52 19
-104 38 -51 20 -101 36 -110 36 -9 0 -28 -13 -41 -28 -42 -47 -173 -126 -285
-172 -18 -7 -41 -14 -95 -27 -32 -7 -145 -20 -155 -17 -5 1 -44 5 -85 8 -83 7
-85 7 -185 30 -74 18 -250 89 -276 112 -8 8 -19 14 -23 14 -27 0 -202 150
-275 237 -62 73 -213 348 -214 391 0 6 -4 12 -9 12 -4 0 -8 5 -8 11 0 14 -112
243 -165 338 -44 80 -133 213 -190 287 -43 54 -46 71 -22 102 5 6 7 12 3 12
-4 0 2 17 13 38 10 20 19 39 19 42 1 8 13 41 39 104 14 33 26 67 28 75 2 9 8
27 13 41 5 14 10 29 10 33 0 4 8 19 17 33 9 14 15 28 12 30 -2 2 -106 -38
-231 -90 l-228 -94 -66 50 c-37 27 -75 56 -85 64 -9 8 -22 14 -27 14 -6 0 -10
5 -10 10 0 6 -6 10 -13 10 -7 0 -22 8 -33 18 -11 9 -37 26 -59 37 -21 11 -44
25 -50 30 -12 11 -31 22 -120 70 -35 19 -67 35 -70 35 -3 0 -10 -12 -16 -27z"/>
<path d="M6955 2524 c-16 -9 -41 -22 -55 -29 -32 -17 -234 -108 -283 -128 -43
-18 -44 -22 -51 -97 -2 -30 -5 -55 -6 -55 -1 0 -3 -15 -4 -32 -5 -51 -47 -172
-84 -243 -36 -69 -87 -137 -136 -184 -74 -68 -248 -187 -283 -192 -7 -1 -21
-8 -30 -15 -34 -29 -206 -81 -313 -96 -85 -11 -298 -5 -340 10 -8 3 -44 13
-80 22 -58 14 -172 52 -225 75 -23 11 -188 74 -195 75 -22 5 -98 29 -119 37
-14 6 -35 13 -46 15 -11 2 -31 8 -45 13 -14 5 -36 12 -50 14 -14 3 -78 16
-143 30 -65 14 -125 25 -135 25 -9 0 -42 3 -72 6 -30 4 -72 7 -93 8 -37 0 -40
3 -63 53 -13 29 -29 65 -35 81 -11 28 -12 27 -50 -54 -36 -79 -40 -83 -71 -84
-101 -3 -222 -21 -388 -59 -52 -12 -104 -23 -116 -26 -12 -2 -40 -11 -64 -19
-24 -8 -45 -13 -47 -11 -9 9 -98 -34 -95 -46 10 -45 104 -216 155 -284 l61
-81 55 14 c226 59 406 87 571 87 91 0 209 -9 254 -19 11 -3 32 -7 46 -9 57 -9
165 -37 243 -63 45 -15 87 -28 92 -29 6 -2 35 -12 65 -24 30 -12 60 -23 65
-24 14 -4 45 -16 75 -28 14 -5 63 -23 110 -40 47 -16 92 -32 100 -35 8 -3 20
-7 25 -8 6 -2 39 -10 75 -18 186 -45 361 -52 590 -22 39 5 234 57 245 65 6 4
21 11 35 15 60 17 175 74 269 132 l74 46 51 -18 c28 -10 65 -24 81 -31 57 -25
269 -103 272 -100 3 3 -18 56 -58 143 -10 24 -19 46 -19 49 0 3 -7 20 -15 37
-44 97 -56 139 -43 157 7 10 34 46 60 82 87 118 184 349 203 478 3 25 8 52 10
60 18 61 23 390 6 390 -3 0 -19 -7 -36 -16z"/>
</g>
</svg>
